<svg width="321" height="70" viewBox="0 0 321 70" fill="none" xmlns="http://www.w3.org/2000/svg">
<path d="M86.9176 31V13.5455H89.5511V21.1307H98.2528V13.5455H100.895V31H98.2528V23.3892H89.5511V31H86.9176Z" fill="black"/>
<path d="M110.168 31.2642C108.878 31.2642 107.767 30.9886 106.835 30.4375C105.909 29.8807 105.193 29.0994 104.688 28.0938C104.188 27.0824 103.938 25.8977 103.938 24.5398C103.938 23.1989 104.188 22.017 104.688 20.9943C105.193 19.9716 105.898 19.1733 106.801 18.5994C107.71 18.0256 108.773 17.7386 109.989 17.7386C110.727 17.7386 111.443 17.8608 112.136 18.1051C112.83 18.3494 113.452 18.733 114.003 19.2557C114.554 19.7784 114.989 20.4574 115.307 21.2926C115.625 22.1222 115.784 23.1307 115.784 24.3182V25.2216H105.378V23.3125H113.287C113.287 22.642 113.151 22.0483 112.878 21.5312C112.605 21.0085 112.222 20.5966 111.727 20.2955C111.239 19.9943 110.665 19.8438 110.006 19.8438C109.29 19.8438 108.665 20.0199 108.131 20.3722C107.602 20.7187 107.193 21.1733 106.903 21.7358C106.619 22.2926 106.477 22.8977 106.477 23.5511V25.0426C106.477 25.9176 106.631 26.6619 106.938 27.2756C107.25 27.8892 107.685 28.358 108.241 28.6818C108.798 29 109.449 29.1591 110.193 29.1591C110.676 29.1591 111.116 29.0909 111.514 28.9545C111.912 28.8125 112.256 28.6023 112.545 28.3239C112.835 28.0455 113.057 27.7017 113.21 27.2926L115.622 27.7273C115.429 28.4375 115.082 29.0597 114.582 29.5938C114.088 30.1222 113.466 30.5341 112.716 30.8295C111.972 31.1193 111.122 31.2642 110.168 31.2642Z" fill="black"/>
<path d="M122.421 31.2898C121.592 31.2898 120.842 31.1364 120.171 30.8295C119.501 30.517 118.969 30.0653 118.577 29.4744C118.191 28.8835 117.998 28.1591 117.998 27.3011C117.998 26.5625 118.14 25.9545 118.424 25.4773C118.708 25 119.092 24.6222 119.575 24.3438C120.058 24.0653 120.597 23.8551 121.194 23.7131C121.79 23.571 122.398 23.4631 123.018 23.3892C123.802 23.2983 124.438 23.2244 124.927 23.1676C125.415 23.1051 125.771 23.0057 125.992 22.8693C126.214 22.733 126.325 22.5114 126.325 22.2045V22.1449C126.325 21.4006 126.114 20.8239 125.694 20.4148C125.279 20.0057 124.66 19.8011 123.836 19.8011C122.978 19.8011 122.302 19.9915 121.808 20.3722C121.319 20.7472 120.981 21.1648 120.793 21.625L118.398 21.0795C118.683 20.2841 119.097 19.642 119.643 19.1534C120.194 18.6591 120.827 18.3011 121.543 18.0795C122.259 17.8523 123.012 17.7386 123.802 17.7386C124.325 17.7386 124.879 17.8011 125.464 17.9261C126.055 18.0455 126.606 18.267 127.117 18.5909C127.634 18.9148 128.058 19.3778 128.387 19.9801C128.717 20.5767 128.881 21.3523 128.881 22.3068V31H126.393V29.2102H126.29C126.126 29.5398 125.879 29.8636 125.549 30.1818C125.219 30.5 124.796 30.7642 124.279 30.9744C123.762 31.1847 123.143 31.2898 122.421 31.2898ZM122.975 29.2443C123.68 29.2443 124.282 29.1051 124.782 28.8267C125.288 28.5483 125.671 28.1847 125.933 27.7358C126.2 27.2813 126.333 26.7955 126.333 26.2784V24.5909C126.242 24.6818 126.066 24.767 125.805 24.8466C125.549 24.9205 125.256 24.9858 124.927 25.0426C124.597 25.0938 124.276 25.142 123.964 25.1875C123.651 25.2273 123.39 25.2614 123.18 25.2898C122.685 25.3523 122.234 25.4574 121.825 25.6051C121.421 25.7528 121.097 25.9659 120.853 26.2443C120.614 26.517 120.495 26.8807 120.495 27.3352C120.495 27.9659 120.728 28.4432 121.194 28.767C121.66 29.0852 122.254 29.2443 122.975 29.2443Z" fill="black"/>
<path d="M134.824 13.5455V31H132.276V13.5455H134.824Z" fill="black"/>
<path d="M144.363 17.9091V19.9545H137.212V17.9091H144.363ZM139.13 14.7727H141.678V27.1562C141.678 27.6506 141.752 28.0227 141.9 28.2727C142.048 28.517 142.238 28.6847 142.471 28.7756C142.71 28.8608 142.968 28.9034 143.246 28.9034C143.451 28.9034 143.63 28.8892 143.783 28.8608C143.937 28.8324 144.056 28.8097 144.141 28.7926L144.602 30.8977C144.454 30.9545 144.244 31.0114 143.971 31.0682C143.698 31.1307 143.357 31.1648 142.948 31.1705C142.278 31.1818 141.653 31.0625 141.073 30.8125C140.494 30.5625 140.025 30.1761 139.667 29.6534C139.309 29.1307 139.13 28.4744 139.13 27.6847V14.7727Z" fill="black"/>
<path d="M150.011 23.2273V31H147.463V13.5455H149.977V20.0398H150.139C150.446 19.3352 150.915 18.7756 151.545 18.3608C152.176 17.946 153 17.7386 154.017 17.7386C154.915 17.7386 155.699 17.9233 156.369 18.2926C157.045 18.6619 157.568 19.2131 157.938 19.946C158.312 20.6733 158.5 21.5824 158.5 22.6733V31H155.952V22.9801C155.952 22.0199 155.705 21.2756 155.21 20.7472C154.716 20.2131 154.028 19.946 153.148 19.946C152.545 19.946 152.006 20.0739 151.528 20.3295C151.057 20.5852 150.685 20.9602 150.412 21.4545C150.145 21.9432 150.011 22.5341 150.011 23.2273Z" fill="black"/>
<path d="M177.977 18.1307C177.886 17.3239 177.511 16.6989 176.852 16.2557C176.192 15.8068 175.363 15.5824 174.363 15.5824C173.647 15.5824 173.028 15.696 172.505 15.9233C171.982 16.1449 171.576 16.4517 171.286 16.8438C171.002 17.2301 170.86 17.6705 170.86 18.1648C170.86 18.5795 170.957 18.9375 171.15 19.2386C171.349 19.5398 171.607 19.7926 171.925 19.9972C172.249 20.196 172.596 20.3636 172.965 20.5C173.335 20.6307 173.69 20.7386 174.031 20.8239L175.735 21.267C176.292 21.4034 176.863 21.5881 177.448 21.821C178.033 22.054 178.576 22.3608 179.076 22.7415C179.576 23.1222 179.979 23.5938 180.286 24.1562C180.599 24.7188 180.755 25.392 180.755 26.1761C180.755 27.1648 180.499 28.0426 179.988 28.8097C179.482 29.5767 178.746 30.1818 177.781 30.625C176.82 31.0682 175.658 31.2898 174.295 31.2898C172.988 31.2898 171.857 31.0824 170.903 30.6676C169.948 30.2528 169.201 29.6648 168.661 28.9034C168.121 28.1364 167.823 27.2273 167.766 26.1761H170.408C170.46 26.8068 170.664 27.3324 171.022 27.7528C171.386 28.1676 171.849 28.4773 172.411 28.6818C172.979 28.8807 173.602 28.9801 174.278 28.9801C175.022 28.9801 175.684 28.8636 176.263 28.6307C176.849 28.392 177.309 28.0625 177.644 27.642C177.979 27.2159 178.147 26.7188 178.147 26.1506C178.147 25.6335 177.999 25.2102 177.704 24.8807C177.414 24.5511 177.019 24.2784 176.519 24.0625C176.025 23.8466 175.465 23.6563 174.84 23.4915L172.778 22.929C171.38 22.5483 170.272 21.9886 169.454 21.25C168.641 20.5114 168.235 19.5341 168.235 18.3182C168.235 17.3125 168.508 16.4347 169.053 15.6847C169.599 14.9347 170.337 14.3523 171.269 13.9375C172.201 13.517 173.252 13.3068 174.423 13.3068C175.604 13.3068 176.647 13.5142 177.55 13.929C178.46 14.3438 179.175 14.9148 179.698 15.642C180.221 16.3636 180.494 17.1932 180.516 18.1307H177.977Z" fill="black"/>
<path d="M191.99 25.571V17.9091H194.547V31H192.041V28.733H191.905C191.604 29.4318 191.121 30.0142 190.456 30.4801C189.797 30.9403 188.976 31.1705 187.993 31.1705C187.152 31.1705 186.408 30.9858 185.76 30.6165C185.118 30.2415 184.612 29.6875 184.243 28.9545C183.879 28.2216 183.697 27.3153 183.697 26.2358V17.9091H186.246V25.929C186.246 26.821 186.493 27.5312 186.987 28.0597C187.482 28.5881 188.124 28.8523 188.913 28.8523C189.391 28.8523 189.865 28.733 190.337 28.4943C190.814 28.2557 191.209 27.8949 191.521 27.4119C191.839 26.929 191.996 26.3153 191.99 25.571Z" fill="black"/>
<path d="M197.971 35.9091V17.9091H200.46V20.0312H200.673C200.82 19.7585 201.033 19.4432 201.312 19.0852C201.59 18.7273 201.977 18.4148 202.471 18.1477C202.965 17.875 203.619 17.7386 204.431 17.7386C205.488 17.7386 206.431 18.0057 207.261 18.5398C208.09 19.0739 208.741 19.8438 209.212 20.8494C209.69 21.8551 209.928 23.0653 209.928 24.4801C209.928 25.8949 209.692 27.108 209.221 28.1193C208.749 29.125 208.102 29.9006 207.278 30.446C206.454 30.9858 205.513 31.2557 204.457 31.2557C203.661 31.2557 203.011 31.1222 202.505 30.8551C202.005 30.5881 201.613 30.2756 201.329 29.9176C201.045 29.5597 200.826 29.2415 200.673 28.9631H200.519V35.9091H197.971ZM200.468 24.4545C200.468 25.375 200.602 26.1818 200.869 26.875C201.136 27.5682 201.522 28.1108 202.028 28.5028C202.533 28.8892 203.153 29.0824 203.886 29.0824C204.647 29.0824 205.283 28.8807 205.795 28.4773C206.306 28.0682 206.692 27.5142 206.954 26.8153C207.221 26.1165 207.354 25.3295 207.354 24.4545C207.354 23.5909 207.224 22.8153 206.962 22.1278C206.707 21.4403 206.32 20.8977 205.803 20.5C205.292 20.1023 204.653 19.9034 203.886 19.9034C203.147 19.9034 202.522 20.0938 202.011 20.4744C201.505 20.8551 201.121 21.3864 200.86 22.0682C200.599 22.75 200.468 23.5455 200.468 24.4545Z" fill="black"/>
<path d="M212.783 35.9091V17.9091H215.272V20.0312H215.485C215.633 19.7585 215.846 19.4432 216.124 19.0852C216.403 18.7273 216.789 18.4148 217.283 18.1477C217.778 17.875 218.431 17.7386 219.244 17.7386C220.3 17.7386 221.244 18.0057 222.073 18.5398C222.903 19.0739 223.553 19.8438 224.025 20.8494C224.502 21.8551 224.741 23.0653 224.741 24.4801C224.741 25.8949 224.505 27.108 224.033 28.1193C223.562 29.125 222.914 29.9006 222.09 30.446C221.266 30.9858 220.326 31.2557 219.269 31.2557C218.474 31.2557 217.823 31.1222 217.317 30.8551C216.817 30.5881 216.425 30.2756 216.141 29.9176C215.857 29.5597 215.639 29.2415 215.485 28.9631H215.332V35.9091H212.783ZM215.281 24.4545C215.281 25.375 215.414 26.1818 215.681 26.875C215.948 27.5682 216.335 28.1108 216.84 28.5028C217.346 28.8892 217.965 29.0824 218.698 29.0824C219.46 29.0824 220.096 28.8807 220.607 28.4773C221.119 28.0682 221.505 27.5142 221.766 26.8153C222.033 26.1165 222.167 25.3295 222.167 24.4545C222.167 23.5909 222.036 22.8153 221.775 22.1278C221.519 21.4403 221.133 20.8977 220.616 20.5C220.104 20.1023 219.465 19.9034 218.698 19.9034C217.96 19.9034 217.335 20.0938 216.823 20.4744C216.317 20.8551 215.934 21.3864 215.673 22.0682C215.411 22.75 215.281 23.5455 215.281 24.4545Z" fill="black"/>
<path d="M233.11 31.2642C231.883 31.2642 230.812 30.983 229.897 30.4205C228.982 29.858 228.272 29.071 227.766 28.0597C227.261 27.0483 227.008 25.8665 227.008 24.5142C227.008 23.1562 227.261 21.9687 227.766 20.9517C228.272 19.9347 228.982 19.1449 229.897 18.5824C230.812 18.0199 231.883 17.7386 233.11 17.7386C234.337 17.7386 235.408 18.0199 236.323 18.5824C237.238 19.1449 237.948 19.9347 238.454 20.9517C238.96 21.9687 239.212 23.1562 239.212 24.5142C239.212 25.8665 238.96 27.0483 238.454 28.0597C237.948 29.071 237.238 29.858 236.323 30.4205C235.408 30.983 234.337 31.2642 233.11 31.2642ZM233.119 29.125C233.914 29.125 234.573 28.9148 235.096 28.4943C235.619 28.0739 236.005 27.5142 236.255 26.8153C236.511 26.1165 236.638 25.3466 236.638 24.5057C236.638 23.6705 236.511 22.9034 236.255 22.2045C236.005 21.5 235.619 20.9347 235.096 20.5085C234.573 20.0824 233.914 19.8693 233.119 19.8693C232.317 19.8693 231.653 20.0824 231.124 20.5085C230.602 20.9347 230.212 21.5 229.957 22.2045C229.707 22.9034 229.582 23.6705 229.582 24.5057C229.582 25.3466 229.707 26.1165 229.957 26.8153C230.212 27.5142 230.602 28.0739 231.124 28.4943C231.653 28.9148 232.317 29.125 233.119 29.125Z" fill="black"/>
<path d="M242.057 31V17.9091H244.52V19.9886H244.656C244.895 19.2841 245.315 18.7301 245.918 18.3267C246.526 17.9176 247.213 17.7131 247.98 17.7131C248.139 17.7131 248.327 17.7188 248.543 17.7301C248.764 17.7415 248.938 17.7557 249.062 17.7727V20.2102C248.96 20.1818 248.778 20.1506 248.517 20.1165C248.256 20.0767 247.994 20.0568 247.733 20.0568C247.131 20.0568 246.594 20.1847 246.122 20.4403C245.656 20.6903 245.287 21.0398 245.014 21.4886C244.741 21.9318 244.605 22.4375 244.605 23.0057V31H242.057Z" fill="black"/>
<path d="M258.152 17.9091V19.9545H251.001V17.9091H258.152ZM252.919 14.7727H255.467V27.1562C255.467 27.6506 255.541 28.0227 255.689 28.2727C255.837 28.517 256.027 28.6847 256.26 28.7756C256.499 28.8608 256.757 28.9034 257.036 28.9034C257.24 28.9034 257.419 28.8892 257.572 28.8608C257.726 28.8324 257.845 28.8097 257.93 28.7926L258.391 30.8977C258.243 30.9545 258.033 31.0114 257.76 31.0682C257.487 31.1307 257.146 31.1648 256.737 31.1705C256.067 31.1818 255.442 31.0625 254.862 30.8125C254.283 30.5625 253.814 30.1761 253.456 29.6534C253.098 29.1307 252.919 28.4744 252.919 27.6847V14.7727Z" fill="black"/>
<path d="M267.527 31V13.5455H273.919C275.158 13.5455 276.183 13.75 276.996 14.1591C277.808 14.5625 278.416 15.1108 278.82 15.804C279.223 16.4915 279.425 17.267 279.425 18.1307C279.425 18.858 279.291 19.4716 279.024 19.9716C278.757 20.4659 278.399 20.8636 277.95 21.1648C277.507 21.4602 277.018 21.6761 276.484 21.8125V21.983C277.064 22.0114 277.629 22.1989 278.18 22.5455C278.737 22.8864 279.197 23.3722 279.561 24.0028C279.925 24.6335 280.107 25.4006 280.107 26.304C280.107 27.196 279.896 27.9972 279.476 28.7074C279.061 29.4119 278.419 29.9716 277.55 30.3864C276.68 30.7955 275.57 31 274.217 31H267.527ZM270.161 28.7415H273.962C275.223 28.7415 276.126 28.4972 276.672 28.0085C277.217 27.5199 277.49 26.9091 277.49 26.1761C277.49 25.625 277.351 25.1193 277.072 24.6591C276.794 24.1989 276.396 23.8324 275.879 23.5597C275.368 23.2869 274.76 23.1506 274.055 23.1506H270.161V28.7415ZM270.161 21.0966H273.689C274.28 21.0966 274.811 20.983 275.283 20.7557C275.76 20.5284 276.138 20.2102 276.416 19.8011C276.7 19.3864 276.842 18.8977 276.842 18.3352C276.842 17.6136 276.589 17.0085 276.084 16.5199C275.578 16.0312 274.803 15.7869 273.757 15.7869H270.161V21.0966Z" fill="black"/>
<path d="M286.835 31.2898C286.006 31.2898 285.256 31.1364 284.585 30.8295C283.915 30.517 283.384 30.0653 282.991 29.4744C282.605 28.8835 282.412 28.1591 282.412 27.3011C282.412 26.5625 282.554 25.9545 282.838 25.4773C283.122 25 283.506 24.6222 283.989 24.3438C284.472 24.0653 285.011 23.8551 285.608 23.7131C286.205 23.571 286.813 23.4631 287.432 23.3892C288.216 23.2983 288.852 23.2244 289.341 23.1676C289.83 23.1051 290.185 23.0057 290.406 22.8693C290.628 22.733 290.739 22.5114 290.739 22.2045V22.1449C290.739 21.4006 290.528 20.8239 290.108 20.4148C289.693 20.0057 289.074 19.8011 288.25 19.8011C287.392 19.8011 286.716 19.9915 286.222 20.3722C285.733 20.7472 285.395 21.1648 285.207 21.625L282.812 21.0795C283.097 20.2841 283.511 19.642 284.057 19.1534C284.608 18.6591 285.241 18.3011 285.957 18.0795C286.673 17.8523 287.426 17.7386 288.216 17.7386C288.739 17.7386 289.293 17.8011 289.878 17.9261C290.469 18.0455 291.02 18.267 291.531 18.5909C292.048 18.9148 292.472 19.3778 292.801 19.9801C293.131 20.5767 293.295 21.3523 293.295 22.3068V31H290.807V29.2102H290.705C290.54 29.5398 290.293 29.8636 289.963 30.1818C289.634 30.5 289.21 30.7642 288.693 30.9744C288.176 31.1847 287.557 31.2898 286.835 31.2898ZM287.389 29.2443C288.094 29.2443 288.696 29.1051 289.196 28.8267C289.702 28.5483 290.085 28.1847 290.347 27.7358C290.614 27.2813 290.747 26.7955 290.747 26.2784V24.5909C290.656 24.6818 290.48 24.767 290.219 24.8466C289.963 24.9205 289.67 24.9858 289.341 25.0426C289.011 25.0938 288.69 25.142 288.378 25.1875C288.065 25.2273 287.804 25.2614 287.594 25.2898C287.099 25.3523 286.648 25.4574 286.239 25.6051C285.835 25.7528 285.511 25.9659 285.267 26.2443C285.028 26.517 284.909 26.8807 284.909 27.3352C284.909 27.9659 285.142 28.4432 285.608 28.767C286.074 29.0852 286.668 29.2443 287.389 29.2443Z" fill="black"/>
<path d="M306.499 21.1051L304.19 21.5142C304.093 21.2187 303.94 20.9375 303.729 20.6705C303.525 20.4034 303.246 20.1847 302.894 20.0142C302.542 19.8437 302.102 19.7585 301.573 19.7585C300.852 19.7585 300.249 19.9205 299.766 20.2443C299.283 20.5625 299.042 20.9744 299.042 21.4801C299.042 21.9176 299.204 22.2699 299.528 22.5369C299.852 22.804 300.374 23.0227 301.096 23.1932L303.175 23.6705C304.38 23.9489 305.278 24.3778 305.869 24.9574C306.46 25.5369 306.755 26.2898 306.755 27.2159C306.755 28 306.528 28.6989 306.073 29.3125C305.624 29.9205 304.996 30.3977 304.19 30.7443C303.389 31.0909 302.46 31.2642 301.403 31.2642C299.937 31.2642 298.741 30.9517 297.815 30.3267C296.888 29.696 296.32 28.8011 296.11 27.642L298.573 27.267C298.727 27.9091 299.042 28.3949 299.519 28.7244C299.996 29.0483 300.619 29.2102 301.386 29.2102C302.221 29.2102 302.888 29.0369 303.388 28.6903C303.888 28.3381 304.138 27.9091 304.138 27.4034C304.138 26.9943 303.985 26.6506 303.678 26.3722C303.377 26.0938 302.914 25.8835 302.289 25.7415L300.073 25.2557C298.852 24.9773 297.948 24.5341 297.363 23.9261C296.783 23.3182 296.494 22.5483 296.494 21.6165C296.494 20.8438 296.71 20.1676 297.141 19.5881C297.573 19.0085 298.17 18.5568 298.931 18.233C299.692 17.9034 300.565 17.7386 301.548 17.7386C302.962 17.7386 304.076 18.0455 304.888 18.6591C305.701 19.267 306.238 20.0824 306.499 21.1051Z" fill="black"/>
<path d="M315.199 31.2642C313.909 31.2642 312.798 30.9886 311.866 30.4375C310.94 29.8807 310.224 29.0994 309.719 28.0938C309.219 27.0824 308.969 25.8977 308.969 24.5398C308.969 23.1989 309.219 22.017 309.719 20.9943C310.224 19.9716 310.929 19.1733 311.832 18.5994C312.741 18.0256 313.804 17.7386 315.02 17.7386C315.759 17.7386 316.474 17.8608 317.168 18.1051C317.861 18.3494 318.483 18.733 319.034 19.2557C319.585 19.7784 320.02 20.4574 320.338 21.2926C320.656 22.1222 320.815 23.1307 320.815 24.3182V25.2216H310.409V23.3125H318.318C318.318 22.642 318.182 22.0483 317.909 21.5312C317.636 21.0085 317.253 20.5966 316.759 20.2955C316.27 19.9943 315.696 19.8438 315.037 19.8438C314.321 19.8438 313.696 20.0199 313.162 20.3722C312.634 20.7187 312.224 21.1733 311.935 21.7358C311.651 22.2926 311.509 22.8977 311.509 23.5511V25.0426C311.509 25.9176 311.662 26.6619 311.969 27.2756C312.281 27.8892 312.716 28.358 313.273 28.6818C313.83 29 314.48 29.1591 315.224 29.1591C315.707 29.1591 316.148 29.0909 316.545 28.9545C316.943 28.8125 317.287 28.6023 317.577 28.3239C317.866 28.0455 318.088 27.7017 318.241 27.2926L320.653 27.7273C320.46 28.4375 320.114 29.0597 319.614 29.5938C319.119 30.1222 318.497 30.5341 317.747 30.8295C317.003 31.1193 316.153 31.2642 315.199 31.2642Z" fill="black"/>
<path fill-rule="evenodd" clip-rule="evenodd" d="M37.3875 13.1454L13.527 27.9665L13.5195 27.9723L13.518 27.9767C13.5067 27.9994 13.5005 28.0243 13.5 28.0496C13.5 28.089 13.5075 28.1167 13.515 28.1298C13.515 28.1356 13.518 28.1371 13.518 28.1385H13.5195L13.5285 28.1473L37.389 45.1821L61.4715 28.1473L61.482 28.1385L61.4835 28.1356L61.4865 28.1313C61.4971 28.1058 61.5017 28.0784 61.5 28.051C61.4997 28.0253 61.4936 27.9999 61.482 27.9767L61.4805 27.9723L61.473 27.9679L37.389 13.1454H37.3875ZM38.9385 22.314L52.932 30.9254L50.322 32.7717L37.3875 24.8121L24.579 32.7687L21.987 30.9167L35.8275 22.3212C36.2912 22.0313 36.8306 21.8765 37.3819 21.8752C37.9332 21.8739 38.4734 22.0261 38.9385 22.314Z" fill="#F24E1E"/>
<path fill-rule="evenodd" clip-rule="evenodd" d="M0 0H72V70H0V0ZM11.9115 25.5092C10.0995 26.635 10.0155 29.2571 11.7525 30.4967L35.6685 47.5738C36.696 48.3058 38.0685 48.3088 39.0975 47.581L63.2355 30.5054C64.9875 29.2658 64.9035 26.6263 63.078 25.5033L38.9385 10.6473C38.4734 10.3595 37.9332 10.2072 37.3819 10.2085C36.8306 10.2098 36.2912 10.3646 35.8275 10.6546L11.91 25.5092H11.9115ZM13.8555 35.9683L16.4475 37.8204L13.527 39.6331C13.5244 39.6349 13.5219 39.6369 13.5195 39.639L13.518 39.6433C13.5067 39.6661 13.5005 39.691 13.5 39.7163C13.5 39.7556 13.5075 39.7833 13.515 39.7965C13.515 39.8023 13.518 39.8052 13.518 39.8052L13.5285 39.814L37.389 56.8488L61.389 39.8737C60.258 43.031 61.1175 40.6481 61.398 39.865L61.4715 39.814L61.482 39.8052L61.4835 39.8023L61.4865 39.7979C61.4971 39.7725 61.5017 39.7451 61.5 39.7177C61.4997 39.6919 61.4936 39.6665 61.482 39.6433L61.4805 39.639L61.398 39.865L61.3875 39.8723L61.473 39.6346L58.503 37.8058L61.113 35.961L63.078 37.17C64.9035 38.2929 64.9875 40.9325 63.2355 42.1721L39.099 59.2477C38.07 59.9769 36.6975 59.9725 35.67 59.2404L11.7525 42.1633C10.0155 40.9238 10.0995 38.3017 11.9115 37.1758L13.8555 35.9683Z" fill="#F24E1E"/>
<path d="M99.0341 50.7273C99.0341 52.2614 98.7571 53.5871 98.2031 54.7045C97.6491 55.822 96.8892 56.6837 95.9233 57.2898C94.9574 57.8958 93.8542 58.1989 92.6136 58.1989C91.3731 58.1989 90.2699 57.8958 89.304 57.2898C88.3381 56.6837 87.5781 55.822 87.0241 54.7045C86.4702 53.5871 86.1932 52.2614 86.1932 50.7273C86.1932 49.1932 86.4702 47.8674 87.0241 46.75C87.5781 45.6326 88.3381 44.7708 89.304 44.1648C90.2699 43.5587 91.3731 43.2557 92.6136 43.2557C93.8542 43.2557 94.9574 43.5587 95.9233 44.1648C96.8892 44.7708 97.6491 45.6326 98.2031 46.75C98.7571 47.8674 99.0341 49.1932 99.0341 50.7273ZM97.3295 50.7273C97.3295 49.4678 97.1188 48.4048 96.6974 47.5384C96.2808 46.6719 95.715 46.0161 95 45.571C94.2898 45.1259 93.4943 44.9034 92.6136 44.9034C91.733 44.9034 90.9351 45.1259 90.2202 45.571C89.5099 46.0161 88.9441 46.6719 88.5227 47.5384C88.1061 48.4048 87.8977 49.4678 87.8977 50.7273C87.8977 51.9867 88.1061 53.0497 88.5227 53.9162C88.9441 54.7827 89.5099 55.4384 90.2202 55.8835C90.9351 56.3286 91.733 56.5511 92.6136 56.5511C93.4943 56.5511 94.2898 56.3286 95 55.8835C95.715 55.4384 96.2808 54.7827 96.6974 53.9162C97.1188 53.0497 97.3295 51.9867 97.3295 50.7273Z" fill="black"/>
<path d="M103.445 51.4375V58H101.768V47.0909H103.388V48.7955H103.53C103.786 48.2415 104.174 47.7964 104.695 47.4602C105.215 47.1193 105.888 46.9489 106.712 46.9489C107.45 46.9489 108.097 47.1004 108.651 47.4034C109.205 47.7017 109.635 48.1562 109.943 48.767C110.251 49.3731 110.405 50.1401 110.405 51.0682V58H108.729V51.1818C108.729 50.3248 108.506 49.6572 108.061 49.179C107.616 48.696 107.005 48.4545 106.229 48.4545C105.694 48.4545 105.215 48.5705 104.794 48.8026C104.377 49.0346 104.048 49.3731 103.807 49.8182C103.565 50.2633 103.445 50.803 103.445 51.4375Z" fill="black"/>
<path d="M115.144 43.4545V58H113.468V43.4545H115.144Z" fill="black"/>
<path d="M118.214 58V47.0909H119.89V58H118.214ZM119.066 45.2727C118.739 45.2727 118.458 45.1615 118.221 44.9389C117.989 44.7164 117.873 44.4489 117.873 44.1364C117.873 43.8239 117.989 43.5563 118.221 43.3338C118.458 43.1113 118.739 43 119.066 43C119.393 43 119.672 43.1113 119.904 43.3338C120.141 43.5563 120.259 43.8239 120.259 44.1364C120.259 44.4489 120.141 44.7164 119.904 44.9389C119.672 45.1615 119.393 45.2727 119.066 45.2727Z" fill="black"/>
<path d="M124.636 51.4375V58H122.96V47.0909H124.579V48.7955H124.721C124.977 48.2415 125.365 47.7964 125.886 47.4602C126.407 47.1193 127.079 46.9489 127.903 46.9489C128.642 46.9489 129.288 47.1004 129.842 47.4034C130.396 47.7017 130.827 48.1562 131.135 48.767C131.442 49.3731 131.596 50.1401 131.596 51.0682V58H129.92V51.1818C129.92 50.3248 129.698 49.6572 129.252 49.179C128.807 48.696 128.197 48.4545 127.42 48.4545C126.885 48.4545 126.407 48.5705 125.985 48.8026C125.569 49.0346 125.24 49.3731 124.998 49.8182C124.757 50.2633 124.636 50.803 124.636 51.4375Z" fill="black"/>
<path d="M139.233 58.2273C138.182 58.2273 137.275 57.9953 136.513 57.5312C135.755 57.0625 135.17 56.4091 134.759 55.571C134.351 54.7282 134.148 53.7481 134.148 52.6307C134.148 51.5133 134.351 50.5284 134.759 49.6761C135.17 48.8191 135.743 48.1515 136.477 47.6733C137.216 47.1903 138.078 46.9489 139.062 46.9489C139.631 46.9489 140.192 47.0436 140.746 47.233C141.3 47.4223 141.804 47.7301 142.259 48.1562C142.713 48.5777 143.075 49.1364 143.345 49.8324C143.615 50.5284 143.75 51.3854 143.75 52.4034V53.1136H135.341V51.6648H142.045C142.045 51.0492 141.922 50.5 141.676 50.017C141.435 49.5341 141.089 49.1529 140.639 48.8736C140.194 48.5942 139.669 48.4545 139.062 48.4545C138.395 48.4545 137.817 48.6203 137.33 48.9517C136.847 49.2784 136.475 49.7045 136.214 50.2301C135.954 50.7557 135.824 51.3191 135.824 51.9205V52.8864C135.824 53.7102 135.966 54.4086 136.25 54.9815C136.539 55.5497 136.939 55.983 137.45 56.2812C137.962 56.5748 138.556 56.7216 139.233 56.7216C139.673 56.7216 140.071 56.66 140.426 56.5369C140.786 56.4091 141.096 56.2197 141.357 55.9688C141.617 55.7131 141.818 55.3958 141.96 55.017L143.58 55.4716C143.409 56.0208 143.123 56.5038 142.72 56.9205C142.318 57.3324 141.821 57.6544 141.229 57.8864C140.637 58.1136 139.972 58.2273 139.233 58.2273Z" fill="black"/>
<path d="M163.857 48H162.095C161.991 47.4934 161.809 47.0483 161.548 46.6648C161.293 46.2812 160.98 45.9593 160.611 45.6989C160.246 45.4337 159.841 45.2348 159.396 45.1023C158.951 44.9697 158.487 44.9034 158.004 44.9034C157.124 44.9034 156.326 45.1259 155.611 45.571C154.901 46.0161 154.335 46.6719 153.913 47.5384C153.497 48.4048 153.288 49.4678 153.288 50.7273C153.288 51.9867 153.497 53.0497 153.913 53.9162C154.335 54.7827 154.901 55.4384 155.611 55.8835C156.326 56.3286 157.124 56.5511 158.004 56.5511C158.487 56.5511 158.951 56.4848 159.396 56.3523C159.841 56.2197 160.246 56.0232 160.611 55.7628C160.98 55.4976 161.293 55.1733 161.548 54.7898C161.809 54.4015 161.991 53.9564 162.095 53.4545H163.857C163.724 54.1979 163.482 54.8632 163.132 55.4503C162.782 56.0374 162.346 56.5369 161.825 56.9489C161.304 57.3561 160.72 57.6662 160.071 57.8793C159.427 58.0923 158.738 58.1989 158.004 58.1989C156.764 58.1989 155.661 57.8958 154.695 57.2898C153.729 56.6837 152.969 55.822 152.415 54.7045C151.861 53.5871 151.584 52.2614 151.584 50.7273C151.584 49.1932 151.861 47.8674 152.415 46.75C152.969 45.6326 153.729 44.7708 154.695 44.1648C155.661 43.5587 156.764 43.2557 158.004 43.2557C158.738 43.2557 159.427 43.3622 160.071 43.5753C160.72 43.7884 161.304 44.1009 161.825 44.5128C162.346 44.92 162.782 45.4171 163.132 46.0043C163.482 46.5866 163.724 47.2519 163.857 48Z" fill="black"/>
<path d="M168.152 43.4545V58H166.475V43.4545H168.152Z" fill="black"/>
<path d="M171.222 58V47.0909H172.898V58H171.222ZM172.074 45.2727C171.747 45.2727 171.465 45.1615 171.229 44.9389C170.997 44.7164 170.881 44.4489 170.881 44.1364C170.881 43.8239 170.997 43.5563 171.229 43.3338C171.465 43.1113 171.747 43 172.074 43C172.401 43 172.68 43.1113 172.912 43.3338C173.149 43.5563 173.267 43.8239 173.267 44.1364C173.267 44.4489 173.149 44.7164 172.912 44.9389C172.68 45.1615 172.401 45.2727 172.074 45.2727Z" fill="black"/>
<path d="M177.644 51.4375V58H175.968V47.0909H177.587V48.7955H177.729C177.985 48.2415 178.373 47.7964 178.894 47.4602C179.415 47.1193 180.087 46.9489 180.911 46.9489C181.65 46.9489 182.296 47.1004 182.85 47.4034C183.404 47.7017 183.835 48.1562 184.142 48.767C184.45 49.3731 184.604 50.1401 184.604 51.0682V58H182.928V51.1818C182.928 50.3248 182.705 49.6572 182.26 49.179C181.815 48.696 181.204 48.4545 180.428 48.4545C179.893 48.4545 179.415 48.5705 178.993 48.8026C178.577 49.0346 178.248 49.3731 178.006 49.8182C177.765 50.2633 177.644 50.803 177.644 51.4375Z" fill="black"/>
<path d="M187.667 58V47.0909H189.343V58H187.667ZM188.519 45.2727C188.192 45.2727 187.911 45.1615 187.674 44.9389C187.442 44.7164 187.326 44.4489 187.326 44.1364C187.326 43.8239 187.442 43.5563 187.674 43.3338C187.911 43.1113 188.192 43 188.519 43C188.846 43 189.125 43.1113 189.357 43.3338C189.594 43.5563 189.712 43.8239 189.712 44.1364C189.712 44.4489 189.594 44.7164 189.357 44.9389C189.125 45.1615 188.846 45.2727 188.519 45.2727Z" fill="black"/>
<path d="M196.845 58.2273C195.822 58.2273 194.941 57.9858 194.203 57.5028C193.464 57.0199 192.896 56.3546 192.498 55.5071C192.101 54.6596 191.902 53.6913 191.902 52.6023C191.902 51.4943 192.105 50.5166 192.512 49.669C192.924 48.8168 193.497 48.1515 194.231 47.6733C194.97 47.1903 195.832 46.9489 196.816 46.9489C197.583 46.9489 198.275 47.0909 198.89 47.375C199.506 47.6591 200.01 48.0568 200.403 48.5682C200.796 49.0795 201.04 49.6761 201.135 50.358H199.458C199.331 49.8608 199.047 49.4205 198.606 49.0369C198.171 48.6487 197.583 48.4545 196.845 48.4545C196.191 48.4545 195.618 48.625 195.126 48.9659C194.638 49.3021 194.257 49.7779 193.983 50.3935C193.713 51.0043 193.578 51.7216 193.578 52.5455C193.578 53.3883 193.71 54.1222 193.975 54.7472C194.245 55.3722 194.624 55.8575 195.112 56.2031C195.604 56.5488 196.182 56.7216 196.845 56.7216C197.28 56.7216 197.676 56.6458 198.031 56.4943C198.386 56.3428 198.687 56.125 198.933 55.8409C199.179 55.5568 199.354 55.2159 199.458 54.8182H201.135C201.04 55.4621 200.806 56.0421 200.431 56.5582C200.062 57.0696 199.572 57.4768 198.961 57.7798C198.355 58.0781 197.65 58.2273 196.845 58.2273Z" fill="black"/>
</svg>
